<svg width="127" height="30" viewBox="0 0 127 30" xmlns="http://www.w3.org/2000/svg"><title>imovelweb</title><g fill="none" fill-rule="evenodd"><path d="M15.89 14.056h3.052V26.14H15.89V14.056zM35.43 26.14v-8.048c0-1.188-.762-1.86-1.996-1.86-.763 0-1.368.224-1.796.604v9.305h-3.072v-8.18c0-1.076-.808-1.726-2.11-1.726-.694 0-1.255.112-1.683.29v9.62h-3.05V14.66c1.233-.494 2.826-.876 4.555-.876 1.95 0 3.185.606 3.88 1.234.763-.582 2.245-1.234 4.06-1.234 2.672 0 4.287 1.55 4.287 3.992v8.362H35.43m10.834.272c-3.52 0-5.472-2.712-5.472-6.323 0-3.61 1.95-6.3 5.472-6.3 3.523 0 5.476 2.69 5.476 6.3s-1.953 6.322-5.476 6.322zm0-10.225c-1.615 0-2.42 1.458-2.42 3.88 0 2.42.805 3.857 2.42 3.857 1.616 0 2.425-1.435 2.425-3.857 0-2.423-.81-3.88-2.427-3.88zm14.313 9.955h-3.545l-4.375-12.084h3.456l2.22 7.533c.27.917.45 1.95.45 1.95h.044s.18-1.033.45-1.95l2.22-7.535h3.432L60.575 26.14m16.064-5.83l-7.785 1.055c.27 1.77 1.57 2.645 3.343 2.645 1.21 0 2.513-.312 3.364-.762l.876 2.287c-1.01.517-2.715.875-4.465.875-3.994 0-6.103-2.6-6.103-6.322 0-3.7 2.087-6.3 5.61-6.3 3.34 0 5.204 2.197 5.204 5.492 0 .335 0 .672-.045 1.03zm-5.228-4.303c-1.594 0-2.714 1.166-2.76 3.43l5.07-.694c0-1.817-.897-2.736-2.31-2.736zM79.04 8.54h3.05v17.6h-3.05V8.54zm19.314 17.6h-3.162l-1.863-6.883c-.226-.83-.34-1.816-.34-1.816h-.045s-.134.99-.36 1.818l-1.86 6.883h-3.163L84.04 14.057h3.075l1.726 7.4c.205.896.317 1.97.317 1.97h.046s.178-1.074.402-1.97l1.952-7.4h2.805l1.952 7.4c.224.896.403 1.97.403 1.97h.046s.113-1.074.314-1.97l1.727-7.4h3.074l-3.52 12.084m15.407-5.83l-7.784 1.055c.27 1.77 1.573 2.645 3.344 2.645 1.212 0 2.514-.312 3.366-.762l.873 2.287c-1.01.517-2.712.875-4.464.875-3.995 0-6.104-2.6-6.104-6.322 0-3.7 2.087-6.3 5.61-6.3 3.34 0 5.203 2.197 5.203 5.492 0 .335 0 .672-.046 1.03zm-5.227-4.303c-1.593 0-2.715 1.166-2.76 3.43l5.072-.694c0-1.817-.897-2.736-2.312-2.736zm11.867 10.403c-1.683 0-3.296-.403-4.287-.875V8.54h3.053v5.763c.54-.247 1.416-.404 2.134-.404 3.14 0 5.273 2.174 5.273 5.87-.002 4.53-2.314 6.638-6.17 6.638zm.313-10.178c-.56 0-1.167.133-1.548.313v7.22c.292.133.853.245 1.415.245 1.748 0 2.915-1.322 2.915-3.99 0-2.377-1.054-3.788-2.782-3.788z" fill="#1A1918"/><path d="M13.637 6.157C13.637 2.912 11.025.3 7.802.3c-1.728 0-3.274.74-4.338 1.926-.934 1.038-1.5 2.414-1.5 3.93 0 .102.004.207.01.308.016.294.053.577.11.856.006.032.01.065.018.098.467 2.14 2.097 3.85 4.2 4.407V16.2L9.3 15.06v-3.245c2.507-.67 4.34-2.96 4.34-5.658zm-5.81 3.07c-1.65 0-2.967-1.32-2.967-2.97 0-1.647 1.318-2.964 2.967-2.964 1.625 0 2.968 1.318 2.968 2.965 0 1.65-1.343 2.968-2.968 2.968zm1.47 6.653v4.172l-5.904 2.27-2.796-1.105V19.18l8.7-3.3zm0 5.083v4.135l-6.06 2.31-2.64-1.046v-2.156l8.7-3.243zm0 4.95v4.055l-5.01-2.134 5.01-1.92z" fill="#DE4A2A"/></g></svg>