<svg id="Layer_1" xmlns="http://www.w3.org/2000/svg" viewBox="-244 384 122 26"><style>.st0{fill:#fff}</style><path class="st0" d="M-204.1 407.2h-4.3l-5-16.6h3.8l3.4 13.6 3.2-13.6h3.6l-4.7 16.6zm9.8-14.9c0 1.1-.8 1.9-1.9 1.9-1.1 0-1.9-.8-1.9-1.9s.8-1.9 1.9-1.9c1.1 0 1.9.8 1.9 1.9zm-.3 14.9h-3.2v-12h3.2v12zm9.2 0h-3.8l-3.9-12h3.5l2.3 9.5 2.4-9.5h3.3l-3.8 12zm15.4-1.9l-.7 2.1c-1.4-.1-2.2-.6-2.7-1.8-.9 1.3-2.1 1.8-3.6 1.8-2.4 0-3.9-1.6-3.9-3.7 0-2.6 1.9-4 5.5-4h1.4v-.6c0-1.5-.6-1.9-2.1-1.9-.8 0-1.9.2-3.1.6l-.7-2.1c1.5-.6 3-.9 4.4-.9 3.3 0 4.8 1.5 4.8 4.2v4.9c-.2.9.1 1.2.7 1.4zm-4-1.4v-2.2h-1.1c-1.8 0-2.6.6-2.6 1.9 0 1.1.6 1.7 1.6 1.7.9-.1 1.6-.6 2.1-1.4zm11.4-3.3h-1.8v6.5h-3.5v-16.6h5.2c4.4 0 6.7 1.6 6.7 5 0 2.2-1.1 3.5-3.2 4.5l4.3 7.1h-4l-3.7-6.5zm-1.9-2.4h1.9c1.9 0 2.8-.8 2.8-2.6 0-1.7-1-2.4-3.1-2.4h-1.6v5zm20.1 4h-7.5c.2 2.3 1.3 3 2.8 3 1 0 1.9-.3 2.9-1.1l1.4 1.9c-1.2 1-2.6 1.7-4.6 1.7-3.8 0-5.8-2.5-5.8-6.2 0-3.6 1.9-6.4 5.5-6.4 3.4 0 5.4 2.2 5.4 6 0 .2 0 .7-.1 1.1zm-3.1-2.1c0-1.9-.6-3-2.1-3-1.3 0-2 .9-2.2 3.1l4.3-.1zm15.6 5.2l-.7 2.1c-1.4-.1-2.2-.6-2.7-1.8-.9 1.3-2.1 1.8-3.6 1.8-2.4 0-3.9-1.6-3.9-3.7 0-2.6 1.9-4 5.6-4h1.4v-.6c0-1.5-.6-1.9-2.1-1.9-.8 0-1.9.2-3.1.6l-.7-2.1c1.5-.6 3-.9 4.4-.9 3.3 0 4.8 1.5 4.8 4.2v4.9c-.3.9 0 1.2.6 1.4zm-4-1.4v-2.2h-1.1c-1.8 0-2.6.6-2.6 1.9 0 1.1.6 1.7 1.6 1.7.9-.1 1.6-.6 2.1-1.4zm5.7.3V390l3.3-.4v14.5c0 .5.2.8.7.8.3 0 .5 0 .7-.1l.7 2.3c-.5.2-1.3.4-2.1.4-2.1.1-3.3-1.2-3.3-3.3zm-89.5 3V397l-4.9-1.9V408c-1.9.1-3.1 0-3.1 0l-.1-17.4 14.3 6.3-14.1-12.8s.2 0-3.7 3.3V385l1.8.8-2.1-1.6-4.5 4.3v2.7c-1.9 2.3-3.7 3.2-4.8 4.5-2.6 2.9-2.6 6.3-.3 9 2 2.2 6.6 5 13.9 5 6.8 0 12.9-2.9 15.7-6.6-2 1.5-4.2 3-8.1 4.1zm-17.6-2.4c-3.9-1.5-3.3-4.5-2.2-6.2 1.2-1.9 2.2-2.1 2.2-2.1v8.3zm6.8-4.3l-3.9.9v-4.6l3.9-1.6v5.3z"/><title>logo</title></svg>